<?xml version="1.0" encoding="utf-8"?>
<!-- Generator: Adobe Illustrator 23.0.1, SVG Export Plug-In . SVG Version: 6.00 Build 0)  -->
<svg version="1.1" id="图层_1" xmlns="http://www.w3.org/2000/svg" xmlns:xlink="http://www.w3.org/1999/xlink" x="0px" y="0px"
	 viewBox="0 0 166.7 131.5" style="enable-background:new 0 0 166.7 131.5;" xml:space="preserve">
<style type="text/css">
	.st0{fill:#DCDBE0;}
	.st1{fill:#CDCCD1;}
	.st2{font-family:'PingFangSC-Regular-GBpc-EUC-H';}
	.st3{font-size:28px;}
</style>
<path class="st0" d="M56.8,80.8c-1.1,0-1.9-0.9-1.9-2.1v-36c0-1.2,0.9-2.1,1.9-2.1c1.1,0,1.9,0.9,1.9,2.1v36
	C58.7,79.8,57.8,80.8,56.8,80.8L56.8,80.8z M110.3,80.8c-1.1,0-1.9-0.9-1.9-2.1V49.2c0-1.2,0.9-2.1,1.9-2.1c1.1,0,1.9,0.9,1.9,2.1
	v29.5C112.2,79.8,111.4,80.8,110.3,80.8L110.3,80.8z M123.7,80.8H43.4c-1.1,0-1.9-0.9-1.9-2.1c0-1.2,0.9-2.1,1.9-2.1h80.4
	c1.1,0,1.9,0.9,1.9,2.1C125.6,79.8,124.8,80.8,123.7,80.8L123.7,80.8z M127.5,30.3c0,4.7-3.4,8.4-7.7,8.4h-3.8
	c-2.3,0-4.3-1.1-5.7-2.9c-1.4,1.8-3.5,2.9-5.7,2.9h-1.9c-2.3,0-4.3-1.1-5.7-2.9c-1.4,1.8-3.4,2.9-5.7,2.9h-1.9
	c-2.3,0-4.3-1.1-5.7-2.9c-1.4,1.8-3.4,2.9-5.7,2.9h-1.9c-2.3,0-4.3-1.1-5.7-2.9c-1.4,1.8-3.5,2.9-5.7,2.9h-1.9
	c-2.3,0-4.3-1.1-5.7-2.9c-1.4,1.8-3.5,2.9-5.7,2.9h-3.8c-4.2,0-7.7-3.8-7.7-8.4l0.4-2.1l2.4-14.7c0-7,5.1-12.6,11.5-12.6h59.4
	c6.3,0,11.5,5.7,11.5,12.6L127.5,30.3L127.5,30.3z M120.9,13.4c0-4.7-3.4-8.4-7.7-8.4L53.9,5c-4.2,0-7.7,3.8-7.7,8.4l-2.8,16.8
	c0,2.3,1.7,4.2,3.8,4.2H51c2.1,0,3.8-1.9,3.8-4.2v-2.1v-6.3c0-1.2,0.9-2.1,1.9-2.1c1.1,0,1.9,0.9,1.9,2.1v6.3v2.1
	c0,2.3,1.7,4.2,3.8,4.2h1.9c2.1,0,3.8-1.9,3.8-4.2v-2.1v-6.3c0-1.2,0.9-2.1,1.9-2.1s1.9,0.9,1.9,2.1v6.3v2.1c0,2.3,1.7,4.2,3.8,4.2
	h1.9c2.1,0,3.8-1.9,3.8-4.2v-2.1v-6.3c0-1.2,0.9-2.1,1.9-2.1c1.1,0,1.9,0.9,1.9,2.1v6.3v2.1c0,2.3,1.7,4.2,3.8,4.2h1.9
	c2.1,0,3.8-1.9,3.8-4.2v-2.1v-6.3c0-1.2,0.9-2.1,1.9-2.1c1.1,0,1.9,0.9,1.9,2.1v6.3l0,2.1c0,2.3,1.7,4.2,3.8,4.2h1.9
	c2.1,0,3.8-1.9,3.8-4.2v-2.1v-6.3c0-1.2,0.9-2.1,1.9-2.1c1.1,0,1.9,0.9,1.9,2.1v6.3v2.1c0,2.3,1.7,4.2,3.8,4.2h3.8
	c2.1,0,3.8-1.9,3.8-4.2L120.9,13.4L120.9,13.4z M98.9,76.6V59.7c0-1.2-0.8-2.1-1.9-2.1h-5.7c-1.1,0-1.9,0.9-1.9,2.1v16.8h-3.8v-19
	c0-2.3,1.7-4.2,3.8-4.2h9.6c2.1,0,3.8,1.9,3.8,4.2v19H98.9L98.9,76.6z M95,72.4c-1.1,0-1.9-0.9-1.9-2.1s0.9-2.1,1.9-2.1
	c1.1,0,1.9,0.9,1.9,2.1C96.9,71.4,96.1,72.4,95,72.4L95,72.4z"/>
<text transform="matrix(1 0 0 1 -0.4518 126.7826)" class="st1 st2 st3">暂无商户信息</text>
</svg>
